# xmcd CD database file
#
# Track frame offsets:
#	150
#	27100
#	40855
#	58165
#
# Disc length: 1039 seconds
#
# Revision: 0
# Processed by: cddbd v1.5.1PL2 Copyright (c) Steve Scherf et al.
# Submitted via: CDex 1.51
#
DISCID=2c040d04
DTITLE=LA-PPISCH - LA-PPISCH (Tribute to Tribute)
DYEAR=2000
DGENRE=Rock
TTITLE0=パヤパヤ(Tribute to Tribute)
TTITLE1=Birthday party
TTITLE2=ロックンロール トビー
TTITLE3=Poor Boy(Tribute to Tribute)
EXTD=YEAR: 2000
EXTT0=
EXTT1=
EXTT2=
EXTT3=
PLAYORDER=
